<mxfile host="Electron" agent="Mozilla/5.0 (X11; Linux x86_64) AppleWebKit/537.36 (KHTML, like Gecko) draw.io/28.0.6 Chrome/138.0.7204.185 Electron/37.2.6 Safari/537.36" version="28.0.6">
  <diagram name="Page-1" id="1txKScC2ECZwHmFzEDto">
    <mxGraphModel dx="1426" dy="960" grid="1" gridSize="10" guides="1" tooltips="1" connect="1" arrows="1" fold="1" page="1" pageScale="1" pageWidth="850" pageHeight="1100" math="0" shadow="0">
      <root>
        <mxCell id="0" />
        <mxCell id="1" parent="0" />
        <mxCell id="pwTMxb68c1OZ3kuxbKro-1" value="" style="triangle;whiteSpace=wrap;html=1;rotation=-90;" parent="1" vertex="1">
          <mxGeometry x="255" y="415" width="170" height="120" as="geometry" />
        </mxCell>
        <mxCell id="pwTMxb68c1OZ3kuxbKro-2" value="" style="rounded=0;whiteSpace=wrap;html=1;dashed=1;dashPattern=8 8;" parent="1" vertex="1">
          <mxGeometry x="40" y="385" width="600" height="10" as="geometry" />
        </mxCell>
        <mxCell id="pwTMxb68c1OZ3kuxbKro-3" value="" style="rounded=0;whiteSpace=wrap;html=1;rotation=-15;" parent="1" vertex="1">
          <mxGeometry x="40" y="385" width="600" height="10" as="geometry" />
        </mxCell>
        <mxCell id="pwTMxb68c1OZ3kuxbKro-9" value="" style="group" parent="1" vertex="1" connectable="0">
          <mxGeometry x="500" y="350" width="43.791081103930104" height="40" as="geometry" />
        </mxCell>
        <mxCell id="pwTMxb68c1OZ3kuxbKro-6" value="" style="endArrow=classic;html=1;rounded=0;entryX=0.86;entryY=1.106;entryDx=0;entryDy=0;entryPerimeter=0;curved=1;" parent="pwTMxb68c1OZ3kuxbKro-9" edge="1">
          <mxGeometry width="50" height="50" relative="1" as="geometry">
            <mxPoint x="19.790864883144085" y="40" as="sourcePoint" />
            <mxPoint as="targetPoint" />
            <Array as="points">
              <mxPoint x="19.790864883144085" y="16.02464821276233" />
            </Array>
          </mxGeometry>
        </mxCell>
        <mxCell id="pwTMxb68c1OZ3kuxbKro-7" value="&lt;span style=&quot;-webkit-line-clamp: 3;&quot; class=&quot;kY2IgmnCmOGjharHErah&quot;&gt;&lt;i&gt;&lt;font face=&quot;Verdana&quot;&gt;α&lt;/font&gt;&lt;/i&gt;&lt;/span&gt;" style="text;html=1;align=center;verticalAlign=middle;resizable=0;points=[];autosize=1;strokeColor=none;fillColor=none;" parent="pwTMxb68c1OZ3kuxbKro-9" vertex="1">
          <mxGeometry x="13.791081103930106" y="6.43450749786726" width="30" height="30" as="geometry" />
        </mxCell>
        <mxCell id="pwTMxb68c1OZ3kuxbKro-11" value="" style="rounded=0;whiteSpace=wrap;html=1;" parent="1" vertex="1">
          <mxGeometry x="430" y="480" width="50" height="80" as="geometry" />
        </mxCell>
        <mxCell id="pwTMxb68c1OZ3kuxbKro-12" value="" style="rounded=0;whiteSpace=wrap;html=1;dashed=1;dashPattern=8 8;" parent="1" vertex="1">
          <mxGeometry x="450" y="490" width="130" height="10" as="geometry" />
        </mxCell>
        <mxCell id="pwTMxb68c1OZ3kuxbKro-14" value="" style="rounded=0;whiteSpace=wrap;html=1;rotation=-90;dashed=1;dashPattern=8 8;" parent="1" vertex="1">
          <mxGeometry x="517.5" y="437.5" width="115" height="10" as="geometry" />
        </mxCell>
        <mxCell id="pwTMxb68c1OZ3kuxbKro-16" value="" style="rounded=0;whiteSpace=wrap;html=1;rotation=-30;" parent="1" vertex="1">
          <mxGeometry x="440.79" y="454.5" width="148" height="10" as="geometry" />
        </mxCell>
        <mxCell id="pwTMxb68c1OZ3kuxbKro-17" value="" style="rounded=0;whiteSpace=wrap;html=1;rotation=-90;" parent="1" vertex="1">
          <mxGeometry x="519.69" y="371.7" width="110.62" height="10" as="geometry" />
        </mxCell>
        <mxCell id="pwTMxb68c1OZ3kuxbKro-19" value="" style="group" parent="1" vertex="1" connectable="0">
          <mxGeometry x="510" y="463" width="53" height="30" as="geometry" />
        </mxCell>
        <mxCell id="pwTMxb68c1OZ3kuxbKro-20" value="" style="endArrow=classic;html=1;rounded=0;entryX=0.86;entryY=1.106;entryDx=0;entryDy=0;entryPerimeter=0;curved=1;" parent="pwTMxb68c1OZ3kuxbKro-19" edge="1">
          <mxGeometry width="50" height="50" relative="1" as="geometry">
            <mxPoint x="19.790864883144085" y="30" as="sourcePoint" />
            <mxPoint as="targetPoint" />
            <Array as="points">
              <mxPoint x="19.790864883144085" y="12.018486159571747" />
            </Array>
          </mxGeometry>
        </mxCell>
        <mxCell id="pwTMxb68c1OZ3kuxbKro-21" value="&lt;span class=&quot;expandableItem&quot;&gt;&lt;i&gt;&lt;font face=&quot;Verdana&quot;&gt;θ&lt;/font&gt;&lt;/i&gt;&lt;/span&gt;" style="text;html=1;align=center;verticalAlign=middle;resizable=0;points=[];autosize=1;strokeColor=none;fillColor=none;" parent="pwTMxb68c1OZ3kuxbKro-19" vertex="1">
          <mxGeometry x="13.791081103930106" y="-1.1741193765995543" width="30" height="30" as="geometry" />
        </mxCell>
        <mxCell id="pwTMxb68c1OZ3kuxbKro-24" value="&lt;font face=&quot;Verdana&quot;&gt;&lt;i&gt;L&lt;/i&gt;&lt;/font&gt;" style="text;html=1;align=center;verticalAlign=middle;resizable=0;points=[];autosize=1;strokeColor=none;fillColor=none;" parent="1" vertex="1">
          <mxGeometry x="435" y="400" width="30" height="30" as="geometry" />
        </mxCell>
        <mxCell id="pwTMxb68c1OZ3kuxbKro-26" value="&lt;i&gt;l&lt;/i&gt;" style="text;html=1;align=center;verticalAlign=middle;resizable=0;points=[];autosize=1;strokeColor=none;fillColor=none;fontFamily=Verdana;" parent="1" vertex="1">
          <mxGeometry x="510" y="505.0014799999998" width="30" height="30" as="geometry" />
        </mxCell>
        <mxCell id="pwTMxb68c1OZ3kuxbKro-27" value="" style="endArrow=classic;startArrow=classic;html=1;rounded=0;" parent="1" edge="1">
          <mxGeometry width="50" height="50" relative="1" as="geometry">
            <mxPoint x="592" y="390" as="sourcePoint" />
            <mxPoint x="591.79" y="329.15" as="targetPoint" />
          </mxGeometry>
        </mxCell>
        <mxCell id="pwTMxb68c1OZ3kuxbKro-28" value="&lt;i&gt;&lt;font face=&quot;Verdana&quot;&gt;x&lt;/font&gt;&lt;/i&gt;" style="text;html=1;align=center;verticalAlign=middle;resizable=0;points=[];autosize=1;strokeColor=none;fillColor=none;" parent="1" vertex="1">
          <mxGeometry x="588" y="347" width="30" height="30" as="geometry" />
        </mxCell>
        <mxCell id="pwTMxb68c1OZ3kuxbKro-29" value="" style="endArrow=classic;startArrow=classic;html=1;rounded=0;" parent="1" edge="1">
          <mxGeometry width="50" height="50" relative="1" as="geometry">
            <mxPoint x="591.5799999999999" y="497.7" as="sourcePoint" />
            <mxPoint x="592" y="430" as="targetPoint" />
          </mxGeometry>
        </mxCell>
        <mxCell id="pwTMxb68c1OZ3kuxbKro-30" value="&lt;i&gt;&lt;font face=&quot;Verdana&quot;&gt;x&#39;&lt;/font&gt;&lt;/i&gt;" style="text;html=1;align=center;verticalAlign=middle;resizable=0;points=[];autosize=1;strokeColor=none;fillColor=none;" parent="1" vertex="1">
          <mxGeometry x="588.79" y="437.85" width="30" height="30" as="geometry" />
        </mxCell>
        <mxCell id="pwTMxb68c1OZ3kuxbKro-31" value="" style="ellipse;whiteSpace=wrap;html=1;aspect=fixed;" parent="1" vertex="1">
          <mxGeometry x="330" y="380" width="20" height="20" as="geometry" />
        </mxCell>
        <mxCell id="pwTMxb68c1OZ3kuxbKro-32" value="" style="ellipse;whiteSpace=wrap;html=1;aspect=fixed;" parent="1" vertex="1">
          <mxGeometry x="445" y="485" width="20" height="20" as="geometry" />
        </mxCell>
        <mxCell id="pwTMxb68c1OZ3kuxbKro-34" value="" style="endArrow=classic;startArrow=classic;html=1;rounded=0;exitX=0.9;exitY=0.5;exitDx=0;exitDy=0;exitPerimeter=0;" parent="1" edge="1">
          <mxGeometry width="50" height="50" relative="1" as="geometry">
            <mxPoint x="340" y="406" as="sourcePoint" />
            <mxPoint x="575" y="406" as="targetPoint" />
          </mxGeometry>
        </mxCell>
        <mxCell id="pwTMxb68c1OZ3kuxbKro-36" value="" style="endArrow=classic;startArrow=classic;html=1;rounded=0;" parent="1" edge="1">
          <mxGeometry width="50" height="50" relative="1" as="geometry">
            <mxPoint x="455" y="510" as="sourcePoint" />
            <mxPoint x="575" y="510" as="targetPoint" />
          </mxGeometry>
        </mxCell>
        <mxCell id="pwTMxb68c1OZ3kuxbKro-37" value="" style="ellipse;whiteSpace=wrap;html=1;aspect=fixed;" parent="1" vertex="1">
          <mxGeometry x="569" y="419.85" width="12.15" height="12.15" as="geometry" />
        </mxCell>
        <mxCell id="pwTMxb68c1OZ3kuxbKro-38" value="" style="ellipse;whiteSpace=wrap;html=1;aspect=fixed;" parent="1" vertex="1">
          <mxGeometry x="569" y="320" width="12.15" height="12.15" as="geometry" />
        </mxCell>
      </root>
    </mxGraphModel>
  </diagram>
</mxfile>
